HIERARCHY
ROOT RootJoint
{
    OFFSET   0.000000   0.000000   0.000000
    CHANNELS 6 Xposition Yposition Zposition Xrotation Yrotation Zrotation
    JOINT pelvis_lowerback
    {
        OFFSET   0.000000   0.093605   0.000000
        CHANNELS 3 Xrotation Yrotation Zrotation
        JOINT lowerback_torso
        {
            OFFSET   0.000000   0.100000   0.000000
            CHANNELS 3 Xrotation Yrotation Zrotation
            JOINT torso_head
            {
                OFFSET   0.000000   0.282350   0.000000
                CHANNELS 3 Xrotation Yrotation Zrotation
                End Site
                {
                    OFFSET   0.000000   0.192650   0.000000
                }
            }
            JOINT rTorso_Clavicle
            {
                OFFSET  -0.001000   0.157500   0.000000
                CHANNELS 3 Xrotation Yrotation Zrotation
                JOINT rShoulder
                {
                    OFFSET  -0.117647   0.000000   0.000000
                    CHANNELS 3 Xrotation Yrotation Zrotation
                    JOINT rElbow
                    {
                        OFFSET  -0.245000   0.000000   0.000000
                        CHANNELS 3 Xrotation Yrotation Zrotation
                        JOINT rWrist
                        {
                            OFFSET  -0.240000   0.000000   0.000000
                            CHANNELS 3 Xrotation Yrotation Zrotation
                            End Site
                            {
                                OFFSET  -0.116353  -0.002500   0.000000
                            }
                        }
                    }
                }
            }
            JOINT lTorso_Clavicle
            {
                OFFSET   0.001000   0.157500   0.000000
                CHANNELS 3 Xrotation Yrotation Zrotation
                JOINT lShoulder
                {
                    OFFSET   0.117647   0.000000   0.000000
                    CHANNELS 3 Xrotation Yrotation Zrotation
                    JOINT lElbow
                    {
                        OFFSET   0.245000   0.000000   0.000000
                        CHANNELS 3 Xrotation Yrotation Zrotation
                        JOINT lWrist
                        {
                            OFFSET   0.240000   0.000000   0.000000
                            CHANNELS 3 Xrotation Yrotation Zrotation
                            End Site
                            {
                                OFFSET   0.116353  -0.002500   0.000000
                            }
                        }
                    }
                }
            }
        }
    }
    JOINT rHip
    {
        OFFSET  -0.100000  -0.051395   0.000000
        CHANNELS 3 Xrotation Yrotation Zrotation
        JOINT rKnee
        {
            OFFSET   0.000000  -0.410000   0.000000
            CHANNELS 3 Xrotation Yrotation Zrotation
            JOINT rAnkle
            {
                OFFSET   0.000000  -0.390000   0.000000
                CHANNELS 3 Xrotation Yrotation Zrotation
                JOINT rToeJoint
                {
                    OFFSET   0.000000  -0.050000   0.130000
                    CHANNELS 3 Xrotation Yrotation Zrotation
                    End Site
                    {
                        OFFSET  -0.010000   0.002000   0.060000
                    }
                }
            }
        }
    }
    JOINT lHip
    {
        OFFSET   0.100000  -0.051395   0.000000
        CHANNELS 3 Xrotation Yrotation Zrotation
        JOINT lKnee
        {
            OFFSET   0.000000  -0.410000   0.000000
            CHANNELS 3 Xrotation Yrotation Zrotation
            JOINT lAnkle
            {
                OFFSET   0.000000  -0.390000   0.000000
                CHANNELS 3 Xrotation Yrotation Zrotation
                JOINT lToeJoint
                {
                    OFFSET   0.000000  -0.050000   0.130000
                    CHANNELS 3 Xrotation Yrotation Zrotation
                    End Site
                    {
                        OFFSET   0.010000   0.002000   0.060000
                    }
                }
            }
        }
    }
}
MOTION
Frames: 12
Frame Time:   0.008333
 -2.319036   0.849971   3.971120 -11.878544 -10.881502  11.461705   7.175587  11.380382  -1.577060   2.043357  10.633321  -2.246491  -1.573797   0.993954  -0.145460   1.763860  -8.506433   5.976571  -3.533529   1.424384  48.686985 179.980008  71.567325 -179.980758  -1.367805   7.442516  -7.494202   3.737935  24.419584  -8.080209  -5.489647  20.600496 -51.636638 -179.919810 -83.201019 -179.916586  -5.837666  -4.835136  21.732736  -3.819833  -1.603424 -20.802214  51.274872  -0.000392  -0.000944 -37.241197 -10.124998  -8.756402   2.558730   0.000026  -0.000002  -5.973725 -10.791245   8.513214  28.534899   0.000162   0.001029   7.502750 -13.307860  -5.838827 -28.899860   0.001499   0.007818
 -2.319056   0.849823   3.971160 -11.857277 -11.146388  11.310426   7.213790  10.962598  -1.574290   1.902291  10.307063  -2.171703  -1.698865   1.182534  -0.201386   1.978582  -8.849747   6.036371  -3.077525   1.055064  48.742304 179.977410  71.807936 -179.977711  -1.360587   7.474551  -7.498849   3.699397  23.991342  -8.108414  -5.559607  20.241936 -51.633283 -179.923550 -83.303803 -179.920799  -5.872788  -4.725674  21.757329  -3.896755  -1.517006 -20.716004  51.306714  -0.000342  -0.000807 -37.199647  -9.917125  -8.598745   2.530370   0.000051  -0.000003  -5.885003 -10.756488   8.647256  28.673139   0.000068   0.000566   7.266047 -13.046132  -5.853612 -28.835472   0.001152   0.006252
 -2.319137   0.849727   3.971211 -11.827960 -11.411042  11.150238   7.247612  10.521341  -1.585799   1.763869   9.940890  -2.096878  -1.823332   1.363659  -0.257141   2.200737  -9.214858   6.071881  -2.634239   0.676476  48.773836 179.974929  72.045614 -179.974719  -1.359837   7.440388  -7.559529   3.626093  23.561464  -8.072693  -5.667064  19.887553 -51.596651 -179.928114 -83.391013 -179.925805  -5.890463  -4.658014  21.792993  -3.972611  -1.434065 -20.611944  51.318778  -0.000285  -0.000665 -37.149422  -9.710527  -8.447340   2.502161   0.000070  -0.000004  -5.795884 -10.707142   8.794097  28.800068   0.000002   0.000230   7.046350 -12.772205  -5.858197 -28.777234   0.000872   0.005011
 -2.319241   0.849683   3.971266 -11.790369 -11.701239  10.989040   7.279370  10.066369  -1.607315   1.636510   9.553941  -2.028921  -1.939809   1.532799  -0.311634   2.417414  -9.579525   6.092721  -2.213576   0.307023  48.793827 179.972888  72.271840 -179.972215  -1.363021   7.370527  -7.657842   3.536785  23.141913  -8.005277  -5.790314  19.544178 -51.546115 -179.933069 -83.465880 -179.931146  -5.890894  -4.632352  21.825479  -4.053026  -1.333663 -20.503096  51.318664  -0.000228  -0.000532 -37.090642  -9.495590  -8.304704   2.475638   0.000083  -0.000004  -5.700830 -10.654614   8.945624  28.916019  -0.000058  -0.000042   6.843916 -12.505616  -5.857168 -28.696509   0.000626   0.004001
 -2.319349   0.849691   3.971326 -11.745900 -12.019972  10.829147   7.310066   9.606015  -1.635628   1.520671   9.157725  -1.968518  -2.047596   1.690075  -0.363883   2.625140  -9.935992   6.104650  -1.817145  -0.048139  48.807598 179.971385  72.484773 -179.970339  -1.368089   7.286372  -7.781814   3.440212  22.735989  -7.923098  -5.919047  19.214003 -51.491036 -179.938105 -83.531363 -179.936505  -5.880057  -4.634596  21.845764  -4.137562  -1.213465 -20.393844  51.307736  -0.000171  -0.000407 -37.023644  -9.270915  -8.170741   2.451156   0.000089  -0.000005  -5.601107 -10.603680   9.098107  29.026136  -0.000116  -0.000276   6.658391 -12.252402  -5.852254 -28.585639   0.000404   0.003149
 -2.319450   0.849745   3.971397 -11.695890 -12.363593  10.671847   7.339541   9.146831  -1.668884   1.415272   8.759666  -1.915349  -2.147158   1.836230  -0.413419   2.823124 -10.280820   6.111264  -1.444349  -0.387128  48.818079 179.970436  72.684269 -179.969116  -1.374114   7.197545  -7.923522   3.340934  22.345188  -7.835161  -6.048005  18.897937 -51.436218 -179.943060 -83.589390 -179.941725  -5.862341  -4.654461  21.850870  -4.224627  -1.075782 -20.286105  51.286488  -0.000115  -0.000288 -36.949508  -9.038130  -8.045179   2.428794   0.000090  -0.000005  -5.498446 -10.555979   9.249219  29.133331  -0.000172  -0.000482   6.488855 -12.014326  -5.844442 -28.446316   0.000207   0.002406
 -2.319540   0.849841   3.971486 -11.641431 -12.726399  10.518068   7.367351   8.693758  -1.705939   1.318972   8.364952  -1.869005  -2.239180   1.972070  -0.460127   3.011286 -10.612219   6.114820  -1.094093  -0.709246  48.827007 179.970017  72.870708 -179.968513  -1.380655   7.108547  -8.077262   3.241611  21.970337  -7.746482  -6.174320  18.596357 -51.384139 -179.947855 -83.641211 -179.946737  -5.840350  -4.685836  21.841015  -4.312682  -0.924185 -20.180850  51.255565  -0.000058  -0.000174 -36.869703  -8.799869  -7.927707   2.408516   0.000088  -0.000004  -5.394385 -10.511936   9.397366  29.238803  -0.000226  -0.000663   6.334030 -11.791596  -5.834478 -28.284236   0.000038   0.001742
 -2.319732   0.849825   3.971488 -11.568756 -12.990248  10.272886   7.392927   8.191936  -1.679612   1.171249   7.947582  -1.781290  -2.307775   2.119920  -0.498462   3.142023 -10.999869   6.067856  -0.835595  -1.243997  48.755329 179.970071  73.013657 -179.968329  -1.393684   7.027441  -8.020956   3.118765  21.536662  -7.606947  -6.431337  18.367570 -51.222743 -179.951555 -83.697452 -179.950651  -5.838221  -4.645693  21.787034  -4.423996  -0.873854 -19.970746  51.209979   0.000005  -0.000063 -36.776394  -8.570890  -7.753263   2.372672   0.000119  -0.000006  -5.340860 -10.517411   9.638838  29.408608  -0.000297  -0.000894   6.007982 -11.476764  -5.843551 -27.854305  -0.000489   0.001376
 -2.319978   0.849735   3.971476 -11.495005 -13.246462  10.020144   7.423245   7.680171  -1.665558   1.031279   7.509989  -1.690306  -2.371198   2.260014  -0.531729   3.256823 -11.399061   5.982963  -0.605169  -1.772943  48.660046 179.970321  73.148432 -179.968330  -1.404864   6.946153  -8.093523   2.972854  21.114830  -7.414837  -6.711240  18.143744 -51.034778 -179.955594 -83.744874 -179.954882  -5.823030  -4.634441  21.784035  -4.548686  -0.825556 -19.745474  51.176143   0.000042   0.000005 -36.606748  -8.335154  -7.588193   1.881198   0.000709  -0.000123  -5.278640 -10.513041   9.894800  29.560994  -0.000339  -0.001020   5.694082 -11.155384  -5.846897 -27.595015  -0.000727   0.001141
 -2.320224   0.849653   3.971449 -11.417093 -13.515537   9.767128   7.454399   7.171023  -1.654565   0.903517   7.069048  -1.606226  -2.428944   2.390495  -0.563863   3.363114 -11.790435   5.883895  -0.393152  -2.280669  48.557446 179.970826  73.275860 -179.968643  -1.416111   6.860376  -8.232296   2.821771  20.709330  -7.208076  -6.991154  17.926166 -50.843942 -179.959773 -83.784516 -179.959214  -5.794192  -4.655873  21.796298  -4.675783  -0.771284 -19.519308  51.152104   0.000062   0.000044 -36.541849  -8.105990  -7.424636   1.938030   0.000490  -0.000097  -5.209024 -10.503660  10.154935  29.696791  -0.000368  -0.001097   5.398920 -10.842538  -5.845516 -27.391046  -0.000843   0.000916
 -2.320455   0.849593   3.971416 -11.337106 -13.798388   9.521010   7.487134   6.670173  -1.650389   0.788214   6.632611  -1.530635  -2.481619   2.511751  -0.594591   3.463290 -12.167715   5.781898  -0.195751  -2.762849  48.456245 179.971627  73.395169 -179.969329  -1.427525   6.773886  -8.401359   2.672121  20.320561  -7.000976  -7.262479  17.715610 -50.659983 -179.963886 -83.818011 -179.963445  -5.757081  -4.698647  21.806375  -4.805549  -0.704869 -19.298747  51.125412   0.000081   0.000080 -36.470905  -7.874276  -7.270264   1.978667   0.000340  -0.000077  -5.135543 -10.492808  10.409835  29.822156  -0.000391  -0.001151   5.123830 -10.545057  -5.840676 -27.201725  -0.000909   0.000693
 -2.320664   0.849558   3.971385 -11.256457 -14.091867   9.284121   7.520572   6.181882  -1.652816   0.684372   6.205431  -1.463862  -2.529658   2.624436  -0.623891   3.558535 -12.528558   5.682521  -0.010801  -3.218498  48.360071 179.972696  73.506403 -179.970355  -1.438917   6.689760  -8.583564   2.527228  19.948830  -6.801151  -7.521292  17.512773 -50.487126 -179.967790 -83.846785 -179.967437  -5.715590  -4.753999  21.807577  -4.934842  -0.627468 -19.086464  51.094888   0.000100   0.000116 -36.395177  -7.642640  -7.125594   2.007032   0.000239  -0.000061  -5.060333 -10.481994  10.655888  29.940775  -0.000410  -0.001191   4.868261 -10.265040  -5.833292 -27.016322  -0.000945   0.000474
